# xmcd
#
# Track frame offsets:
#	150
#	17551
#	34762
#	55603
#	75024
#	95223
#	115988
#	138408
#	160378
#	176118
#	198319
#	215783
#	227806
#	244639
#	259438
#	274582
#	296746
#	315865
#	336998
#
# Disc length: 4684 seconds
#
# Revision: 0
# Processed by: cddbd v1.5.2PL0 Copyright (c) Steve Scherf et al.
# Submitted via: EasyCDDAExtractor 11.6.0.1
#
DISCID=12124a13
DTITLE=TARKAN - DUDU and AYRILIC ZOR SERKAN
DYEAR=2003
DGENRE=Pop-Folk
TTITLE0=AYRILIK ZOR SERKAN DINCER MIX
TTITLE1=GULEMSE KADERINE
TTITLE2=DUDU
TTITLE3=ASK
TTITLE4=BU SARKILAR DA OLMASA
TTITLE5=SORMA KALBIM
TTITLE6=UZUN INCE BIR YODAYIM
TTITLE7=DUDU (OZAN COLAKOGLU REMIX)
TTITLE8=HER NERDEYSEN
TTITLE9=VERME
TTITLE10=KUZU-KUZU
TTITLE11=EASTLANGUADE (VS. DJ.ALLIGATOR)
TTITLE12=HUP (OZINGA DISCO RADIO EDIT)
TTITLE13=SMARIK (EDIT MALAGUTTI MIX)
TTITLE14=O`NA SOR
TTITLE15=UZAK
TTITLE16=SEN BASKASIN
TTITLE17=GUTTI GIDELI
TTITLE18=YANDIM
EXTD=
EXTT0=
EXTT1=
EXTT2=
EXTT3=
EXTT4=
EXTT5=
EXTT6=
EXTT7=
EXTT8=
EXTT9=
EXTT10=
EXTT11=
EXTT12=
EXTT13=
EXTT14=
EXTT15=
EXTT16=
EXTT17=
EXTT18=
PLAYORDER=
